#!OML:ASF F:\VICON\USERDATA\INSTALL\rory3\rory3.ASF
:FULLY-SPECIFIED
:DEGREES
2647
root 10.1481 17.6425 5.73659 362.274 67.6799 8.17198
lowerback 11.5433 3.6941 2.2835
upperback 0.807916 5.18222 -0.888982
thorax -5.32293 2.50235 -3.02755
lowerneck -16.2723 1.31512 -6.99702
upperneck 41.826 6.14375 1.30085
head 18.1886 2.11024 3.25782
rclavicle -6.96181e-014 9.54166e-015
rhumerus -36.527 -18.8463 -69.3491
rradius 34.5805
rwrist 5.39376
rhand -17.3943 10.1876
rfingers 7.12502
rthumb 8.85485 -19.6067
lclavicle -6.96181e-014 9.54166e-015
lhumerus -38.8089 19.5152 72.6062
lradius 28.9436
lwrist -4.98224
lhand -23.4855 21.3978
lfingers 7.12502
lthumb 2.97425 51.3568
rfemur 5.0063 4.28206 5.94622
rtibia 27.4339
rfoot -13.0742 -15.9462
rtoes -11.7689
lfemur -4.73528 -2.81183 -12.7534
ltibia 22.4607
lfoot -6.81562 -0.111202
ltoes -17.9862
2648
root 10.2183 17.6458 5.63128 363.514 68.1465 9.39136
lowerback 11.4502 3.55945 1.91176
upperback 0.83269 4.95534 -0.86075
thorax -5.29324 2.4005 -2.74938
lowerneck -16.3362 1.34116 -7.15945
upperneck 41.8637 6.31501 1.18616
head 18.2231 2.13563 3.26987
rclavicle 2.55066e-014 9.54166e-015
rhumerus -36.3407 -18.9026 -69.0797
rradius 34.5781
rwrist 5.42781
rhand -17.4933 10.6667
rfingers 7.12502
rthumb 8.75933 -19.1316
lclavicle 2.55066e-014 9.54166e-015
lhumerus -38.6916 20.1202 72.7672
lradius 28.8954
lwrist -5.38459
lhand -23.6477 21.3818
lfingers 7.12502
lthumb 2.81758 51.343
rfemur 4.91896 4.02826 5.0664
rtibia 27.7531
rfoot -12.5894 -16.0296
rtoes -9.92231
lfemur -4.80136 -2.79577 -13.7291
ltibia 22.3348
lfoot -7.11955 -0.233201
ltoes -16.1682
2649
root 10.2876 17.6492 5.52608 364.882 68.5829 10.7929
lowerback 11.4032 3.44206 1.53526
upperback 0.860403 4.75091 -0.862124
thorax -5.27977 2.30914 -2.50615
lowerneck -16.2736 1.39624 -7.28036
upperneck 41.7969 6.50829 1.02847
head 18.1637 2.17814 3.24796
rclavicle -2.94698e-014 -1.07344e-014
rhumerus -36.2277 -19.0819 -68.8
rradius 34.7401
rwrist 5.18416
rhand -17.2353 10.8624
rfingers 7.12502
rthumb 9.00833 -18.9253
lclavicle -2.94698e-014 -1.07344e-014
lhumerus -38.4892 20.229 73.092
lradius 28.8426
lwrist -5.26033
lhand -23.5211 21.2712
lfingers 7.12502
lthumb 2.93985 51.2307
rfemur 4.82217 3.69655 4.13323
rtibia 28.1699
rfoot -11.9578 -16.1251
rtoes -8.40516
lfemur -4.78027 -2.94667 -14.7084
ltibia 22.1714
lfoot -7.32843 -0.498985
ltoes -15.8174
2650
root 10.352 17.6543 5.42225 366.008 69.0649 11.8836
lowerback 11.3855 3.32742 1.37127
upperback 0.827772 4.57478 -0.912515
thorax -5.32154 2.22451 -2.44122
lowerneck -16.1348 1.4323 -7.33856
upperneck 41.7747 6.6271 0.929793
head 18.1127 2.21132 3.22895
rclavicle -5.59082e-017 -9.93923e-015
rhumerus -36.2314 -19.0933 -68.7007
rradius 35.1508
rwrist 4.54592
rhand -16.9432 10.1667
rfingers 7.12502
rthumb 9.29016 -19.6086
lclavicle -5.59082e-017 -9.93923e-015
lhumerus -38.2491 19.7218 73.6118
lradius 28.8583
lwrist -4.85232
lhand -23.4627 21.263
lfingers 7.12502
lthumb 2.99631 51.2217
rfemur 4.6173 3.18758 3.36498
rtibia 28.6806
rfoot -11.1381 -16.2634
rtoes -7.37006
lfemur -4.81541 -3.31079 -15.4668
ltibia 21.9839
lfoot -7.45222 -0.992435
ltoes -15.2718
2651
root 10.4133 17.6592 5.32266 366.932 69.584 12.8142
lowerback 11.4049 3.20146 1.21183
upperback 0.830807 4.38767 -0.91065
thorax -5.35002 2.13564 -2.3234
lowerneck -16.1187 1.43989 -7.52787
upperneck 41.8435 6.7305 0.934165
head 18.1384 2.22525 3.28742
rclavicle -3.17186e-014 8.74653e-015
rhumerus -36.1663 -19.1451 -68.5749
rradius 35.36
rwrist 4.22332
rhand -16.6109 9.7547
rfingers 7.12502
rthumb 9.61077 -20.0061
lclavicle -3.17186e-014 8.74653e-015
lhumerus -37.9791 19.2585 74.1371
lradius 28.9155
lwrist -4.61569
lhand -23.4693 21.4984
lfingers 7.12502
lthumb 2.98984 51.4572
rfemur 4.45902 2.7274 2.7486
rtibia 29.2713
rfoot -10.4113 -16.4572
rtoes -4.96502
lfemur -4.7884 -3.74538 -16.1062
ltibia 21.7734
lfoot -7.50204 -1.70467
ltoes -14.8893
2652
root 10.475 17.6663 5.22576 368.082 70.0519 14.0776
lowerback 11.4357 3.09222 0.86407
upperback 0.917028 4.20179 -0.875672
thorax -5.31233 2.05428 -2.06308
lowerneck -16.2442 1.43342 -7.82642
upperneck 41.9673 6.84276 1.00751
head 18.226 2.22793 3.40702
rclavicle -3.03147e-014 1.98785e-015
rhumerus -36.0614 -19.2218 -68.425
rradius 35.5085
rwrist 4.11764
rhand -16.4017 9.74274
rfingers 7.12502
rthumb 9.81264 -20.0086
lclavicle -3.03147e-014 1.98785e-015
lhumerus -37.7147 19.2706 74.5157
lradius 28.9663
lwrist -4.83091
lhand -23.0457 21.5233
lfingers 7.12502
lthumb 3.39893 51.4759
rfemur 4.34714 2.44011 2.08405
rtibia 29.9237
rfoot -9.83886 -16.6987
rtoes -0.973756
lfemur -4.66323 -3.96183 -16.8469
ltibia 21.581
lfoot -7.63082 -2.47456
ltoes -14.9134
2653
root 10.5326 17.6768 5.1322 369.462 70.4927 15.5573
lowerback 11.4954 2.99689 0.397645
upperback 0.977491 4.01888 -0.845618
thorax -5.32303 1.97573 -1.74473
lowerneck -16.2809 1.4608 -7.90334
upperneck 42.0578 7.00353 0.884052
head 18.2898 2.26151 3.40076
rclavicle -1.97791e-014 4.37326e-015
rhumerus -36.0436 -19.332 -68.2904
rradius 35.7595
rwrist 3.96808
rhand -16.2424 9.66561
rfingers 7.12502
rthumb 9.96632 -20.0784
lclavicle -1.97791e-014 4.37326e-015
lhumerus -37.4376 19.3532 74.8791
lradius 28.95
lwrist -5.04971
lhand -23.0987 21.7348
lfingers 7.12502
lthumb 3.34777 51.6883
rfemur 4.15003 2.3352 1.4928
rtibia 30.6044
rfoot -9.20198 -17.2891
rtoes 2.91007
lfemur -4.62327 -3.78059 -17.625
ltibia 21.4075
lfoot -7.85515 -3.32725
ltoes -15.4592
2654
root 10.5849 17.6827 5.04302 370.732 70.9293 16.8604
lowerback 11.5134 2.9326 -0.058645
upperback 1.03079 3.88063 -0.766638
thorax -5.31678 1.91926 -1.38519
lowerneck -16.2812 1.44894 -7.98262
upperneck 42.0835 7.10538 0.720657
head 18.3125 2.26876 3.36022
rclavicle 5.68897e-014 3.57812e-015
rhumerus -35.9762 -19.402 -68.1186
rradius 35.942
rwrist 3.71697
rhand -16.1605 9.56874
rfingers 7.12502
rthumb 10.0453 -20.1715
lclavicle 5.68897e-014 3.57812e-015
lhumerus -37.024 18.8514 75.5586
lradius 28.9384
lwrist -4.87382
lhand -23.6552 22.2441
lfingers 7.12502
lthumb 2.81033 52.2054
rfemur 3.85368 2.31121 1.08766
rtibia 31.3108
rfoot -8.59511 -18.0968
rtoes 7.41865
lfemur -4.661 -3.2264 -18.2686
ltibia 21.2105
lfoot -8.03513 -4.55561
ltoes -16.3364
2655
root 10.6377 17.6918 4.95671 371.288 71.2776 17.3447
lowerback 11.4542 2.88596 -0.213678
upperback 1.04337 3.80539 -0.650322
thorax -5.29019 1.88693 -1.16161
lowerneck -16.2292 1.48094 -8.26353
upperneck 42.0148 7.25298 0.721065
head 18.2394 2.29135 3.43088
rclavicle -4.86401e-014 5.56597e-015
rhumerus -35.9329 -19.3068 -68.0555
rradius 36.0924
rwrist 3.49971
rhand -16.1022 9.5551
rfingers 7.12502
rthumb 10.1015 -20.1824
lclavicle -4.86401e-014 5.56597e-015
lhumerus -36.6743 18.1804 76.1977
lradius 29.0032
lwrist -4.71532
lhand -23.7007 22.325
lfingers 7.12502
lthumb 2.7664 52.2868
rfemur 3.42363 2.20755 0.989787
rtibia 32.0308
rfoot -7.88816 -18.8067
rtoes 11.5048
lfemur -4.69193 -2.6053 -18.6045
ltibia 20.9971
lfoot -8.08198 -5.74436
ltoes -15.7553
2656
root 10.6919 17.7074 4.87262 371.476 71.5351 17.4047
lowerback 11.3601 2.82854 -0.223358
upperback 1.0362 3.73275 -0.558116
thorax -5.25324 1.8523 -1.04359
lowerneck -16.1834 1.62585 -8.42049
upperneck 41.8828 7.56998 0.60961
head 18.1318 2.38808 3.45494
rclavicle 1.32316e-014 -7.95139e-016
rhumerus -35.9212 -19.1106 -68.1959
rradius 36.2355
rwrist 3.35783
rhand -16.2941 9.66567
rfingers 7.12502
rthumb 9.91644 -20.0808
lclavicle 1.32316e-014 -7.95139e-016
lhumerus -36.4041 18.1408 76.4649
lradius 29.0409
lwrist -5.04809
lhand -23.3762 21.9648
lfingers 7.12502
lthumb 3.07975 51.9223
rfemur 2.92675 1.93015 1.02083
rtibia 32.7138
rfoot -7.17355 -19.3129
rtoes 14.1399
lfemur -4.69849 -2.11979 -18.8302
ltibia 20.8128
lfoot -8.03671 -6.57933
ltoes -13.8791
2657
root 10.745 17.7223 4.79376 371.873 71.8349 17.7639
lowerback 11.3488 2.78669 -0.339952
upperback 1.04876 3.66589 -0.499841
thorax -5.24577 1.82261 -0.90626
lowerneck -16.1725 1.65455 -8.49168
upperneck 41.8671 7.66652 0.563339
head 18.1157 2.41253 3.46271
rclavicle -3.92351e-014 -7.95139e-015
rhumerus -35.9013 -19.0183 -68.2969
rradius 36.3419
rwrist 3.19999
rhand -16.3507 9.67005
rfingers 7.12502
rthumb 9.86179 -20.079
lclavicle -3.92351e-014 -7.95139e-015
lhumerus -36.1451 18.0412 76.7206
lradius 29.1278
lwrist -5.39432
lhand -23.0571 21.5765
lfingers 7.12502
lthumb 3.38797 51.5293
rfemur 2.56549 1.66048 1.01571
rtibia 33.3607
rfoot -7.18349 -19.6675
rtoes 16.5358
lfemur -4.62957 -1.63544 -19.1256
ltibia 20.6605
lfoot -7.99863 -7.49924
ltoes -11.7689
2658
root 10.7941 17.737 4.72107 371.904 72.1998 17.7611
lowerback 11.3351 2.77396 -0.328909
upperback 1.07751 3.65329 -0.458483
thorax -5.2101 1.81706 -0.86561
lowerneck -16.1835 1.52685 -8.53374
upperneck 42.0019 7.43346 0.741373
head 18.1982 2.33309 3.51926
rclavicle 3.52843e-015 1.59028e-015
rhumerus -35.8671 -19.029 -68.4146
rradius 36.3768
rwrist 3.10771
rhand -16.1503 9.61364
rfingers 7.12502
rthumb 10.0552 -20.1261
lclavicle 3.52843e-015 1.59028e-015
lhumerus -35.8879 17.1589 77.1402
lradius 29.4768
lwrist -5.20267
lhand -22.7668 21.3863
lfingers 7.12502
lthumb 3.66829 51.3345
rfemur 2.26591 1.64997 1.27029
rtibia 33.984
rfoot -7.9368 -19.8498
rtoes 18.9358
lfemur -4.56819 -1.32227 -19.2664
ltibia 20.5658
lfoot -7.96432 -8.28391
ltoes -9.50406
2659
root 10.8382 17.75 4.65335 371.689 72.584 17.4688
lowerback 11.295 2.71232 -0.351056
upperback 1.10193 3.57552 -0.33787
thorax -5.17197 1.78069 -0.712497
lowerneck -16.2226 1.48764 -8.62888
upperneck 42.093 7.36479 0.890957
head 18.2521 2.30785 3.60007
rclavicle -1.799e-014 3.97569e-015
rhumerus -35.7737 -18.8694 -68.6641
rradius 36.3282
rwrist 3.25097
rhand -16.2286 9.82005
rfingers 7.12502
rthumb 9.97957 -19.9234
lclavicle -1.799e-014 3.97569e-015
lhumerus -35.6817 16.275 77.5814
lradius 29.9212
lwrist -4.75509
lhand -22.9001 21.2518
lfingers 7.12502
lthumb 3.53958 51.2022
rfemur 1.94377 1.65799 1.70679
rtibia 34.5628
rfoot -8.85439 -19.4213
rtoes 20.071
lfemur -4.61794 -1.0532 -19.3178
ltibia 20.5642
lfoot -8.08979 -8.88797
ltoes -8.88632
2660
root 10.8812 17.7579 4.58624 371.8 73.0002 17.451
lowerback 11.2016 2.69134 -0.455304
upperback 1.13291 3.53954 -0.266816
thorax -5.09862 1.76645 -0.568719
lowerneck -16.3972 1.45371 -8.55059
upperneck 42.178 7.29051 0.955532
head 18.3527 2.29087 3.61598
rclavicle -7.57867e-015 3.18055e-015
rhumerus -35.6794 -18.9255 -68.9111
rradius 36.2336
rwrist 3.48669
rhand -16.348 10.0583
rfingers 7.12502
rthumb 9.86444 -19.6906
lclavicle -7.57867e-015 3.18055e-015
lhumerus -35.325 15.4729 77.979
lradius 30.3241
lwrist -4.46795
lhand -23.3432 21.4634
lfingers 7.12502
lthumb 3.1117 51.4205
rfemur 1.56575 1.41017 2.06487
rtibia 35.0749
rfoot -9.51522 -18.2658
rtoes 18.568
lfemur -4.80651 -0.771582 -19.4666
ltibia 20.6575
lfoot -8.28445 -9.44237
ltoes -9.35183
